<?xml version="1.0" encoding="UTF-8" standalone="no"?>
<svg
   height="16"
   viewBox="0 0 16 16"
   width="16"
   version="1.1"
   id="svg1109"
   sodipodi:docname="ReactionIcon.svg"
   inkscape:version="1.2.2 (732a01da63, 2022-12-09)"
   xml:space="preserve"
   xmlns:inkscape="http://www.inkscape.org/namespaces/inkscape"
   xmlns:sodipodi="http://sodipodi.sourceforge.net/DTD/sodipodi-0.dtd"
   xmlns="http://www.w3.org/2000/svg"
   xmlns:svg="http://www.w3.org/2000/svg"><defs
     id="defs1113"><inkscape:path-effect
       effect="bspline"
       id="path-effect8605"
       is_visible="true"
       lpeversion="1"
       weight="33.333333"
       steps="2"
       helper_size="0"
       apply_no_weight="true"
       apply_with_weight="true"
       only_selected="false" /><inkscape:path-effect
       effect="bspline"
       id="path-effect8601"
       is_visible="true"
       lpeversion="1"
       weight="33.333333"
       steps="2"
       helper_size="0"
       apply_no_weight="true"
       apply_with_weight="true"
       only_selected="false" /><inkscape:path-effect
       effect="bspline"
       id="path-effect7829"
       is_visible="true"
       lpeversion="1"
       weight="33.333333"
       steps="2"
       helper_size="0"
       apply_no_weight="true"
       apply_with_weight="true"
       only_selected="false" /><inkscape:path-effect
       effect="bspline"
       id="path-effect7771"
       is_visible="true"
       lpeversion="1"
       weight="33.333333"
       steps="2"
       helper_size="0"
       apply_no_weight="true"
       apply_with_weight="true"
       only_selected="false" /><inkscape:path-effect
       effect="bspline"
       id="path-effect7684"
       is_visible="true"
       lpeversion="1"
       weight="33.333333"
       steps="2"
       helper_size="0"
       apply_no_weight="true"
       apply_with_weight="true"
       only_selected="false" /><inkscape:path-effect
       effect="bspline"
       id="path-effect7680"
       is_visible="true"
       lpeversion="1"
       weight="33.333333"
       steps="2"
       helper_size="0"
       apply_no_weight="true"
       apply_with_weight="true"
       only_selected="false" /><inkscape:path-effect
       effect="bspline"
       id="path-effect7676"
       is_visible="true"
       lpeversion="1"
       weight="33.333333"
       steps="2"
       helper_size="0"
       apply_no_weight="true"
       apply_with_weight="true"
       only_selected="false" /><inkscape:path-effect
       effect="bspline"
       id="path-effect6220"
       is_visible="true"
       lpeversion="1"
       weight="33.333333"
       steps="2"
       helper_size="0"
       apply_no_weight="true"
       apply_with_weight="true"
       only_selected="false" /><inkscape:path-effect
       effect="bspline"
       id="path-effect5490"
       is_visible="true"
       lpeversion="1"
       weight="33.333333"
       steps="2"
       helper_size="0"
       apply_no_weight="true"
       apply_with_weight="true"
       only_selected="false" /><inkscape:path-effect
       effect="bspline"
       id="path-effect3308"
       is_visible="true"
       lpeversion="1"
       weight="33.333333"
       steps="2"
       helper_size="0"
       apply_no_weight="true"
       apply_with_weight="true"
       only_selected="false" /><inkscape:path-effect
       effect="bspline"
       id="path-effect3196"
       is_visible="true"
       lpeversion="1"
       weight="33.333333"
       steps="2"
       helper_size="0"
       apply_no_weight="true"
       apply_with_weight="true"
       only_selected="false" /><inkscape:path-effect
       effect="bspline"
       id="path-effect7648"
       is_visible="true"
       lpeversion="1"
       weight="33.333333"
       steps="2"
       helper_size="0"
       apply_no_weight="true"
       apply_with_weight="true"
       only_selected="false" /><inkscape:path-effect
       effect="bspline"
       id="path-effect7622"
       is_visible="true"
       lpeversion="1"
       weight="33.333333"
       steps="2"
       helper_size="0"
       apply_no_weight="true"
       apply_with_weight="true"
       only_selected="false" /><inkscape:path-effect
       effect="bspline"
       id="path-effect6220-2"
       is_visible="true"
       lpeversion="1"
       weight="33.333333"
       steps="2"
       helper_size="0"
       apply_no_weight="true"
       apply_with_weight="true"
       only_selected="false" /></defs><sodipodi:namedview
     id="namedview1111"
     pagecolor="#505050"
     bordercolor="#eeeeee"
     borderopacity="1"
     inkscape:showpageshadow="0"
     inkscape:pageopacity="0"
     inkscape:pagecheckerboard="0"
     inkscape:deskcolor="#505050"
     showgrid="false"
     inkscape:zoom="16"
     inkscape:cx="-2.4375"
     inkscape:cy="5.09375"
     inkscape:window-width="2400"
     inkscape:window-height="1321"
     inkscape:window-x="2391"
     inkscape:window-y="-9"
     inkscape:window-maximized="1"
     inkscape:current-layer="svg1109"
     showguides="false" /><path
     style="display:none;fill:#000000;stroke-width:0.0256122"
     d="m 9.3682156,9.1627883 c 1.1978914,-0.05957 1.2269654,-0.06536 1.4506404,-0.289033 0.168347,-0.168347 0.247473,-0.364771 0.246904,-0.612923 -4.47e-4,-0.149786 -0.01406,-0.203478 -0.09254,-0.362276 -0.162662,-0.329123 -0.398168,-0.539786 -0.753339,-0.673872 -0.161937,-0.06114 -0.206556,-0.06537 -0.8369704,-0.0794 l -0.665911,-0.01482 -0.177352,-0.08399 -0.177352,-0.08399 0.100132,-0.108105 c 0.232357,-0.250866 0.5623,-0.581928 0.579961,-0.581928 0.01048,0 0.03841,0.03746 0.06207,0.08324 0.05303,0.102626 0.106787,0.145394 0.184091,0.146456 0.0885,0.0012 0.147601,-0.03936 0.183479,-0.125979 0.0303,-0.07314 0.02163,-0.09819 -0.153299,-0.442785 -0.101976,-0.200894 -0.195523,-0.37621 -0.207884,-0.389592 -0.07951,-0.08608 -0.03577,-0.09092 0.821,-0.09092 0.7815474,0 0.8443734,0.0033 0.8557654,0.04482 0.120094,0.437774 0.06922,0.609316 -0.263978,0.890019 -0.181328,0.152763 -0.21791,0.211077 -0.201601,0.321378 0.01234,0.08348 0.129454,0.163001 0.210205,0.142734 0.09205,-0.0231 0.460428,-0.356708 0.550901,-0.498898 0.148915,-0.234037 0.180155,-0.450353 0.116112,-0.804009 l -0.0174,-0.09605 h 1.310374 c 1.256752,0 1.316802,-0.0022 1.467515,-0.05294 0.364965,-0.122946 0.603546,-0.385249 0.702798,-0.77267 0.103308,-0.40325 -0.08237,-0.815604 -0.44956,-0.998403 l -0.117458,-0.05847 -1.700437,-0.0071 -1.700435,-0.0071 -0.343433,-0.331656 c -0.287903,-0.278032 -0.3773844,-0.348392 -0.5534234,-0.43516 -0.332807,-0.164034 -0.447371,-0.178462 -1.421239,-0.17897 -1.212448,-6.72e-4 -1.199301,-0.0041 -2.7073942,0.712922 -0.589748,0.280394 -0.742002,0.315319 -1.395857,0.320197 l -0.499434,0.0037 -0.01341,-0.205399 c -0.01536,-0.23534 -0.06207,-0.335726 -0.213029,-0.457799 l -0.09837,-0.07955 -0.739278,-0.0075 c -0.69689,-0.0071 -0.745033,-0.0046 -0.839646,0.0437 -0.125849,0.0642 -0.225063,0.180481 -0.259359,0.303962 -0.0174,0.06265 -0.02631,0.971939 -0.02603,2.656455 4.47e-4,2.422142 0.003,2.566779 0.04706,2.663872 0.05866,0.129123 0.203411,0.257816 0.329312,0.292779 0.127158,0.03531 1.295709,0.03531 1.422869,0 0.187743,-0.05214 0.375062,-0.283915 0.376515,-0.46588 l 6.72e-4,-0.07043 h 0.385345 c 0.374982,0 0.387034,-0.0017 0.44821,-0.06287 0.03458,-0.03458 0.06287,-0.09273 0.06287,-0.129224 0,-0.0365 -0.02829,-0.09465 -0.06287,-0.129224 -0.06118,-0.06118 -0.07323,-0.06287 -0.44821,-0.06287 h -0.385345 v -1.946527 -1.946515 l 0.17288,-0.0013 c 0.09508,-6.72e-4 0.368814,-0.01128 0.608287,-0.02342 0.565365,-0.02867 0.716482,-0.07347 1.477442,-0.437978 0.7410972,-0.354996 0.9695362,-0.449508 1.2717912,-0.526182 0.229561,-0.05823 0.280776,-0.06117 1.06675,-0.06117 0.454085,0 0.887692,0.01158 0.963569,0.02575 0.225843,0.04215 0.426701,0.157745 0.624588,0.359457 l 0.1792844,0.182747 -0.3753084,-0.0089 -0.375309,-0.0089 -0.115506,-0.08295 c -0.165597,-0.118923 -0.2911,-0.101779 -0.346247,0.0473 -0.04846,0.131002 0.05991,0.259424 0.31595,0.374402 0.09546,0.04287 0.262346,0.04688 2.4459494,0.05881 1.715411,0.0094 2.357232,0.0208 2.394727,0.04262 0.08005,0.04659 0.186133,0.167944 0.216071,0.247186 0.09876,0.261394 -0.07281,0.626712 -0.362027,0.770834 l -0.13303,0.06629 -2.344874,4.48e-4 c -1.397267,2.24e-4 -2.4173294,0.0107 -2.5241624,0.02572 -0.220542,0.03102 -0.492551,0.160011 -0.657567,0.311835 -0.18795,0.172925 -0.760244,0.810232 -0.808154,0.899964 -0.02643,0.04951 -0.04366,0.141499 -0.04432,0.236671 -8.96e-4,0.129471 0.01187,0.176544 0.07576,0.279609 0.06929,0.11175 0.11836,0.14732 0.499434,0.361994 0.232429,0.130936 0.474463,0.257726 0.537854,0.281755 0.09301,0.03526 0.246216,0.04692 0.793973,0.06045 0.587731,0.01451 0.6947744,0.0234 0.7984744,0.06626 0.190783,0.07886 0.344257,0.201728 0.448962,0.359426 0.0896,0.134955 0.0972,0.160562 0.0972,0.327892 0,0.149154 -0.01066,0.196445 -0.05978,0.265324 -0.126087,0.176777 -0.126492,0.176843 -1.4640134,0.238491 -1.138174,0.05246 -1.22309,0.0533 -1.423046,0.01401 -0.135582,-0.02664 -0.534894,-0.167433 -1.101861,-0.388506 l -0.8892192,-0.346725 -0.266322,-0.24662 c -0.213922,-0.198097 -0.281484,-0.24662 -0.343384,-0.24662 -0.104618,0 -0.185033,0.08468 -0.182787,0.19248 0.0016,0.07416 0.03852,0.119789 0.290365,0.358298 l 0.288598,0.273314 0.8981392,0.350299 c 0.493975,0.192664 0.984577,0.373096 1.090227,0.400959 0.277322,0.07314 0.671431,0.07679 1.86779,0.0173 z m -7.3430672,-0.701948 -0.05692,-0.03987 v -2.523019 c 0,-1.6902 0.0088,-2.53937 0.02651,-2.572557 0.02514,-0.04697 0.06006,-0.04954 0.673598,-0.04954 0.469137,0 0.655534,0.0085 0.677818,0.03074 0.02349,0.02349 0.03073,0.628186 0.03073,2.56559 0,2.322768 -0.0035,2.538775 -0.04239,2.581694 -0.03878,0.04286 -0.0938,0.04684 -0.647409,0.04684 -0.506138,0 -0.614323,-0.0065 -0.661942,-0.03987 z m 0.77663,-0.586461 c 0.03458,-0.03458 0.06287,-0.09273 0.06287,-0.129224 0,-0.08003 -0.104893,-0.19209 -0.179803,-0.19209 -0.141943,0 -0.230202,0.131939 -0.175921,0.262984 0.05295,0.127849 0.195039,0.156149 0.292857,0.05833 z m 5.0866712,-1.192284 c -0.06256,-0.04532 -0.106291,-0.09774 -0.106291,-0.127403 0,-0.02772 0.06721,-0.128498 0.149363,-0.223944 0.220917,-0.256676 0.704674,-0.750592 0.734743,-0.750173 0.01435,2.04e-4 0.06276,0.06705 0.107567,0.148544 l 0.08146,0.148183 -0.414911,0.438949 c -0.228202,0.241424 -0.421826,0.439826 -0.430278,0.440896 -0.0085,0.0011 -0.0632,-0.0327 -0.121656,-0.07505 z"
     id="path3042"
     sodipodi:insensitive="true" /><g
     id="g8687"
     transform="matrix(1.3676923,0,0,1.3676923,-11.554813,-5.9133338)"><path
       id="path8603"
       style="fill:#ffffff;fill-opacity:1;stroke:none;stroke-width:0.454618;stroke-linecap:round;stroke-linejoin:round;stroke-miterlimit:3.4;stroke-dasharray:none;stroke-opacity:1;paint-order:stroke fill markers"
       d="m 13.642425,5.3684169 c -0.06445,0.030865 -0.120596,0.074866 -0.178408,0.1297067 -0.203949,0.1934776 -0.289537,0.4315036 -0.323682,0.891162 -0.03402,0.4577255 0.01004,0.6695044 0.276646,1.3403088 0.188017,0.47312 0.300815,0.8745962 0.295696,1.0456471 l -0.0037,0.099205 -1.331034,-0.039587 c -1.308796,-0.038826 -1.335954,-0.036468 -1.484724,0.030123 -0.192749,0.086275 -0.397315,0.2787592 -0.494375,0.4648334 -0.105821,0.2028171 -0.09837,0.5655871 0.01977,0.8458291 0.08661,0.205429 0.219663,0.379705 0.290298,0.381796 0.07539,0.0023 0.07424,0.05446 -0.0077,0.205019 -0.04479,0.08227 -0.102499,0.249093 -0.12787,0.370035 -0.06137,0.292303 -0.005,0.568408 0.173563,0.841062 l 0.126511,0.19286 -0.05914,0.163342 c -0.126157,0.344906 -0.01796,0.84822 0.23785,1.104398 l 0.118721,0.118395 -0.01926,0.301279 c -0.04549,0.677051 0.225103,1.086719 0.815849,1.232154 0.267843,0.06597 1.630346,0.103774 2.011257,0.05595 0.443894,-0.05572 1.147015,-0.221988 1.840359,-0.435282 0.816559,-0.251212 1.076185,-0.307028 1.353062,-0.29868 0,0 0.147268,0.0056 0.220937,0.007 0.777704,0.01343 1.163083,-1.558475 1.185841,-2.314392 0.02274,-0.755482 -0.347233,-2.146176 -1.049332,-2.219807 -0.05663,-0.006 -0.170728,-0.0037 -0.170728,-0.0037 -0.118753,-0.0035 -0.224464,-0.03317 -0.334294,-0.09207 C 16.823689,9.677243 16.396206,9.2350841 16.075931,8.8047353 15.577937,8.1355979 15.322652,7.8030159 15.148154,7.5908562 14.83349,7.208345 14.743554,6.9628974 14.520512,5.8637804 14.487946,5.7031813 14.425708,5.5018674 14.38094,5.4200815 l -0.0832,-0.1474916 -0.215077,0.013085 c -0.2012,0.010719 -0.332823,0.031293 -0.440236,0.082743 z"
       sodipodi:nodetypes="cccccccsccsscccccccccccssscccccccccc" /><g
       id="g8681"
       transform="matrix(-0.72429674,-0.07094208,0.07028351,-0.71757305,21.604472,15.993155)"><path
         sodipodi:type="star"
         style="fill:#890000;fill-opacity:1;stroke:none;stroke-width:0.2;stroke-linecap:round;stroke-linejoin:round;stroke-miterlimit:3.4;paint-order:stroke fill markers"
         id="path8677"
         inkscape:flatsided="false"
         sodipodi:sides="3"
         sodipodi:cx="8.09375"
         sodipodi:cy="8.125"
         sodipodi:r1="2.5961814"
         sodipodi:r2="3.7817667"
         sodipodi:arg1="0.62279615"
         sodipodi:arg2="1.5800285"
         inkscape:rounded="0.16"
         inkscape:randomized="0"
         d="M 10.2025,9.639375 C 9.9489044,10.0694 8.5556136,11.956048 8.0588366,11.906605 7.4894108,11.849932 6.0094212,9.6922369 5.7278878,9.1940435 5.4822732,8.7594109 4.5450329,6.6094614 4.8362403,6.2039613 5.1700339,5.7391609 7.7786474,5.5362999 8.3508622,5.5415815 c 0.4992102,0.00461 2.8297408,0.2679086 3.0353108,0.7228517 0.235632,0.5214739 -0.892992,2.88203 -1.183673,3.3749418 z"
         inkscape:transform-center-x="0.014594264"
         inkscape:transform-center-y="0.11403944"
         transform="rotate(-92.66375,7.8321158,5.0579302)" /><path
         sodipodi:type="star"
         style="fill:#890000;fill-opacity:1;stroke:none;stroke-width:0.2;stroke-linecap:round;stroke-linejoin:round;stroke-miterlimit:3.4;paint-order:stroke fill markers"
         id="path8679"
         inkscape:flatsided="false"
         sodipodi:sides="3"
         sodipodi:cx="8.09375"
         sodipodi:cy="8.125"
         sodipodi:r1="2.5961814"
         sodipodi:r2="3.7817667"
         sodipodi:arg1="0.62279615"
         sodipodi:arg2="1.5800285"
         inkscape:rounded="0.16"
         inkscape:randomized="0"
         d="M 10.2025,9.639375 C 9.9489044,10.0694 8.5556136,11.956048 8.0588366,11.906605 7.4894108,11.849932 6.0094212,9.6922369 5.7278878,9.1940435 5.4822732,8.7594109 4.5450329,6.6094614 4.8362403,6.2039613 5.1700339,5.7391609 7.7786474,5.5362999 8.3508622,5.5415815 c 0.4992102,0.00461 2.8297408,0.2679086 3.0353108,0.7228517 0.235632,0.5214739 -0.892992,2.88203 -1.183673,3.3749418 z"
         inkscape:transform-center-x="0.014674714"
         inkscape:transform-center-y="0.077578833"
         transform="matrix(-0.04672951,-0.67954686,1.0044014,-0.03161574,0.3146443,10.41251)" /></g></g></svg>
